solid  Processed by ADMesh version 0.95
  facet normal  0.00000000E+00  1.00000000E+00  0.00000000E+00
    outer loop
      vertex  1.27946213E-01  0.00000000E+00  1.45748234E+00
      vertex  2.32440054E-01  0.00000000E+00  4.98469293E-01
      vertex -2.20713839E-01  0.00000000E+00  7.09778428E-01
    endloop
  endfacet
  facet normal  0.00000000E+00  1.00000000E+00 -0.00000000E+00
    outer loop
      vertex  6.85593963E-01  0.00000000E+00  2.87160158E-01
      vertex  2.32440054E-01  0.00000000E+00  4.98469293E-01
      vertex  1.03425395E+00  0.00000000E+00  1.03486407E+00
    endloop
  endfacet
  facet normal  0.00000000E+00  1.00000000E+00  0.00000000E+00
    outer loop
      vertex -1.85952038E-01  0.00000000E+00 -3.98775429E-01
      vertex -1.17262043E-02  0.00000000E+00 -1.20824766E+00
      vertex -9.18033957E-01  0.00000000E+00 -7.85629451E-01
    endloop
  endfacet
  facet normal  0.00000000E+00  1.00000000E+00 -0.00000000E+00
    outer loop
      vertex -1.17262043E-02  0.00000000E+00 -1.20824766E+00
      vertex -1.85952038E-01  0.00000000E+00 -3.98775429E-01
      vertex  3.36933881E-01  0.00000000E+00 -4.60543782E-01
    endloop
  endfacet
  facet normal  0.00000000E+00  1.00000000E+00  0.00000000E+00
    outer loop
      vertex -5.69373906E-01  0.00000000E+00 -3.79255153E-02
      vertex -1.85952038E-01  0.00000000E+00 -3.98775429E-01
      vertex -9.18033957E-01  0.00000000E+00 -7.85629451E-01
    endloop
  endfacet
  facet normal  0.00000000E+00  1.00000000E+00 -0.00000000E+00
    outer loop
      vertex  1.03425395E+00  0.00000000E+00  1.03486407E+00
      vertex  6.50832117E-01  0.00000000E+00  1.39571393E+00
      vertex  1.38291407E+00  0.00000000E+00  1.78256798E+00
    endloop
  endfacet
  facet normal  0.00000000E+00  1.00000000E+00  0.00000000E+00
    outer loop
      vertex  4.76606309E-01  0.00000000E+00  2.20518637E+00
      vertex  6.50832117E-01  0.00000000E+00  1.39571393E+00
      vertex  1.27946213E-01  0.00000000E+00  1.45748234E+00
    endloop
  endfacet
  facet normal  0.00000000E+00  1.00000000E+00 -0.00000000E+00
    outer loop
      vertex  6.50832117E-01  0.00000000E+00  1.39571393E+00
      vertex  4.76606309E-01  0.00000000E+00  2.20518637E+00
      vertex  1.38291407E+00  0.00000000E+00  1.78256798E+00
    endloop
  endfacet
  facet normal  0.00000000E+00  1.00000000E+00  0.00000000E+00
    outer loop
      vertex  6.50832117E-01  0.00000000E+00  1.39571393E+00
      vertex  2.32440054E-01  0.00000000E+00  4.98469293E-01
      vertex  1.27946213E-01  0.00000000E+00  1.45748234E+00
    endloop
  endfacet
  facet normal  0.00000000E+00  1.00000000E+00  0.00000000E+00
    outer loop
      vertex  1.03425395E+00  0.00000000E+00  1.03486407E+00
      vertex  2.32440054E-01  0.00000000E+00  4.98469293E-01
      vertex  6.50832117E-01  0.00000000E+00  1.39571393E+00
    endloop
  endfacet
  facet normal  0.00000000E+00  1.00000000E+00  0.00000000E+00
    outer loop
      vertex -2.20713839E-01  0.00000000E+00  7.09778428E-01
      vertex  2.32440054E-01  0.00000000E+00  4.98469293E-01
      vertex -5.69373906E-01  0.00000000E+00 -3.79255153E-02
    endloop
  endfacet
  facet normal  0.00000000E+00  1.00000000E+00 -0.00000000E+00
    outer loop
      vertex  3.36933881E-01  0.00000000E+00 -4.60543782E-01
      vertex  2.32440054E-01  0.00000000E+00  4.98469293E-01
      vertex  6.85593963E-01  0.00000000E+00  2.87160158E-01
    endloop
  endfacet
  facet normal -0.00000000E+00  1.00000000E+00  0.00000000E+00
    outer loop
      vertex -1.85952038E-01  0.00000000E+00 -3.98775429E-01
      vertex  2.32440054E-01  0.00000000E+00  4.98469293E-01
      vertex  3.36933881E-01  0.00000000E+00 -4.60543782E-01
    endloop
  endfacet
  facet normal -0.00000000E+00  1.00000000E+00  0.00000000E+00
    outer loop
      vertex -5.69373906E-01  0.00000000E+00 -3.79255153E-02
      vertex  2.32440054E-01  0.00000000E+00  4.98469293E-01
      vertex -1.85952038E-01  0.00000000E+00 -3.98775429E-01
    endloop
  endfacet
  facet normal  0.00000000E+00 -1.00000000E+00  0.00000000E+00
    outer loop
      vertex  1.27946213E-01  0.00000000E+00  1.45748234E+00
      vertex -2.20713839E-01  0.00000000E+00  7.09778428E-01
      vertex -5.69373906E-01  0.00000000E+00 -3.79255153E-02
    endloop
  endfacet
  facet normal  0.00000000E+00  1.00000000E+00  0.00000000E+00
    outer loop
      vertex  6.85593963E-01  0.00000000E+00  2.87160158E-01
      vertex  1.03425395E+00  0.00000000E+00  1.03486407E+00
      vertex  1.38291407E+00  0.00000000E+00  1.78256798E+00
    endloop
  endfacet
  facet normal  0.00000000E+00 -1.00000000E+00  0.00000000E+00
    outer loop
      vertex -9.18033957E-01  0.00000000E+00 -7.85629451E-01
      vertex -1.17262043E-02  0.00000000E+00 -1.20824766E+00
      vertex  3.36933881E-01  0.00000000E+00 -4.60543782E-01
    endloop
  endfacet
  facet normal  0.00000000E+00 -1.00000000E+00 -0.00000000E+00
    outer loop
      vertex -5.69373906E-01  0.00000000E+00 -3.79255153E-02
      vertex -9.18033957E-01  0.00000000E+00 -7.85629451E-01
      vertex  3.36933881E-01  0.00000000E+00 -4.60543782E-01
    endloop
  endfacet
  facet normal  0.00000000E+00  1.00000000E+00  0.00000000E+00
    outer loop
      vertex  4.76606309E-01  0.00000000E+00  2.20518637E+00
      vertex  1.27946213E-01  0.00000000E+00  1.45748234E+00
      vertex -5.69373906E-01  0.00000000E+00 -3.79255153E-02
    endloop
  endfacet
  facet normal -0.00000000E+00 -1.00000000E+00  0.00000000E+00
    outer loop
      vertex  1.38291407E+00  0.00000000E+00  1.78256798E+00
      vertex  4.76606309E-01  0.00000000E+00  2.20518637E+00
      vertex -5.69373906E-01  0.00000000E+00 -3.79255153E-02
    endloop
  endfacet
  facet normal  0.00000000E+00 -1.00000000E+00  0.00000000E+00
    outer loop
      vertex  3.36933881E-01  0.00000000E+00 -4.60543782E-01
      vertex  6.85593963E-01  0.00000000E+00  2.87160158E-01
      vertex  1.38291407E+00  0.00000000E+00  1.78256798E+00
    endloop
  endfacet
  facet normal  0.00000000E+00 -1.00000000E+00  0.00000000E+00
    outer loop
      vertex -5.69373906E-01  0.00000000E+00 -3.79255153E-02
      vertex  3.36933881E-01  0.00000000E+00 -4.60543782E-01
      vertex  1.38291407E+00  0.00000000E+00  1.78256798E+00
    endloop
  endfacet
endsolid  Processed by ADMesh version 0.95
