solid  Processed by ADMesh version 0.95
  facet normal  0.00000000E+00  1.00000000E+00  0.00000000E+00
    outer loop
      vertex -3.78258198E-01  0.00000000E+00  1.41334558E+00
      vertex  4.79356609E-02  0.00000000E+00  5.47907114E-01
      vertex -4.50161695E-01  0.00000000E+00  5.91484964E-01
    endloop
  endfacet
  facet normal  0.00000000E+00  1.00000000E+00 -0.00000000E+00
    outer loop
      vertex  5.46033025E-01  0.00000000E+00  5.04329205E-01
      vertex  4.79356609E-02  0.00000000E+00  5.47907114E-01
      vertex  6.17936492E-01  0.00000000E+00  1.32618988E+00
    endloop
  endfacet
  facet normal  0.00000000E+00  1.00000000E+00  0.00000000E+00
    outer loop
      vertex -3.83485258E-02  0.00000000E+00 -4.38325673E-01
      vertex  4.02226031E-01  0.00000000E+00 -1.13939202E+00
      vertex -5.93968689E-01  0.00000000E+00 -1.05223632E+00
    endloop
  endfacet
  facet normal  0.00000000E+00  1.00000000E+00 -0.00000000E+00
    outer loop
      vertex  4.02226031E-01  0.00000000E+00 -1.13939202E+00
      vertex -3.83485258E-02  0.00000000E+00 -4.38325673E-01
      vertex  4.74129528E-01  0.00000000E+00 -3.17531407E-01
    endloop
  endfacet
  facet normal  0.00000000E+00  1.00000000E+00  0.00000000E+00
    outer loop
      vertex -5.22065163E-01  0.00000000E+00 -2.30375677E-01
      vertex -3.83485258E-02  0.00000000E+00 -4.38325673E-01
      vertex -5.93968689E-01  0.00000000E+00 -1.05223632E+00
    endloop
  endfacet
  facet normal  0.00000000E+00  1.00000000E+00 -0.00000000E+00
    outer loop
      vertex  6.17936492E-01  0.00000000E+00  1.32618988E+00
      vertex  1.34219840E-01  0.00000000E+00  1.53413975E+00
      vertex  6.89839959E-01  0.00000000E+00  2.14805055E+00
    endloop
  endfacet
  facet normal  0.00000000E+00  1.00000000E+00  0.00000000E+00
    outer loop
      vertex -3.06354702E-01  0.00000000E+00  2.23520613E+00
      vertex  1.34219840E-01  0.00000000E+00  1.53413975E+00
      vertex -3.78258198E-01  0.00000000E+00  1.41334558E+00
    endloop
  endfacet
  facet normal  0.00000000E+00  1.00000000E+00 -0.00000000E+00
    outer loop
      vertex  1.34219840E-01  0.00000000E+00  1.53413975E+00
      vertex -3.06354702E-01  0.00000000E+00  2.23520613E+00
      vertex  6.89839959E-01  0.00000000E+00  2.14805055E+00
    endloop
  endfacet
  facet normal  0.00000000E+00  1.00000000E+00  0.00000000E+00
    outer loop
      vertex  1.34219840E-01  0.00000000E+00  1.53413975E+00
      vertex  4.79356609E-02  0.00000000E+00  5.47907114E-01
      vertex -3.78258198E-01  0.00000000E+00  1.41334558E+00
    endloop
  endfacet
  facet normal  0.00000000E+00  1.00000000E+00  0.00000000E+00
    outer loop
      vertex  6.17936492E-01  0.00000000E+00  1.32618988E+00
      vertex  4.79356609E-02  0.00000000E+00  5.47907114E-01
      vertex  1.34219840E-01  0.00000000E+00  1.53413975E+00
    endloop
  endfacet
  facet normal  0.00000000E+00  1.00000000E+00  0.00000000E+00
    outer loop
      vertex -4.50161695E-01  0.00000000E+00  5.91484964E-01
      vertex  4.79356609E-02  0.00000000E+00  5.47907114E-01
      vertex -5.22065163E-01  0.00000000E+00 -2.30375677E-01
    endloop
  endfacet
  facet normal  0.00000000E+00  1.00000000E+00 -0.00000000E+00
    outer loop
      vertex  4.74129528E-01  0.00000000E+00 -3.17531407E-01
      vertex  4.79356609E-02  0.00000000E+00  5.47907114E-01
      vertex  5.46033025E-01  0.00000000E+00  5.04329205E-01
    endloop
  endfacet
  facet normal  0.00000000E+00  1.00000000E+00  0.00000000E+00
    outer loop
      vertex -3.83485258E-02  0.00000000E+00 -4.38325673E-01
      vertex  4.79356609E-02  0.00000000E+00  5.47907114E-01
      vertex  4.74129528E-01  0.00000000E+00 -3.17531407E-01
    endloop
  endfacet
  facet normal -0.00000000E+00  1.00000000E+00  0.00000000E+00
    outer loop
      vertex -5.22065163E-01  0.00000000E+00 -2.30375677E-01
      vertex  4.79356609E-02  0.00000000E+00  5.47907114E-01
      vertex -3.83485258E-02  0.00000000E+00 -4.38325673E-01
    endloop
  endfacet
  facet normal  0.00000000E+00 -1.00000000E+00  0.00000000E+00
    outer loop
      vertex -3.78258198E-01  0.00000000E+00  1.41334558E+00
      vertex -4.50161695E-01  0.00000000E+00  5.91484964E-01
      vertex -5.22065163E-01  0.00000000E+00 -2.30375677E-01
    endloop
  endfacet
  facet normal  0.00000000E+00 -1.00000000E+00  0.00000000E+00
    outer loop
      vertex  5.46033025E-01  0.00000000E+00  5.04329205E-01
      vertex  6.17936492E-01  0.00000000E+00  1.32618988E+00
      vertex  6.89839959E-01  0.00000000E+00  2.14805055E+00
    endloop
  endfacet
  facet normal  0.00000000E+00 -1.00000000E+00  0.00000000E+00
    outer loop
      vertex -5.93968689E-01  0.00000000E+00 -1.05223632E+00
      vertex  4.02226031E-01  0.00000000E+00 -1.13939202E+00
      vertex  4.74129528E-01  0.00000000E+00 -3.17531407E-01
    endloop
  endfacet
  facet normal  0.00000000E+00 -1.00000000E+00 -0.00000000E+00
    outer loop
      vertex -5.22065163E-01  0.00000000E+00 -2.30375677E-01
      vertex -5.93968689E-01  0.00000000E+00 -1.05223632E+00
      vertex  4.74129528E-01  0.00000000E+00 -3.17531407E-01
    endloop
  endfacet
  facet normal  0.00000000E+00 -1.00000000E+00  0.00000000E+00
    outer loop
      vertex -3.06354702E-01  0.00000000E+00  2.23520613E+00
      vertex -3.78258198E-01  0.00000000E+00  1.41334558E+00
      vertex -5.22065163E-01  0.00000000E+00 -2.30375677E-01
    endloop
  endfacet
  facet normal -0.00000000E+00 -1.00000000E+00  0.00000000E+00
    outer loop
      vertex  6.89839959E-01  0.00000000E+00  2.14805055E+00
      vertex -3.06354702E-01  0.00000000E+00  2.23520613E+00
      vertex -5.22065163E-01  0.00000000E+00 -2.30375677E-01
    endloop
  endfacet
  facet normal  0.00000000E+00 -1.00000000E+00  0.00000000E+00
    outer loop
      vertex  4.74129528E-01  0.00000000E+00 -3.17531407E-01
      vertex  5.46033025E-01  0.00000000E+00  5.04329205E-01
      vertex  6.89839959E-01  0.00000000E+00  2.14805055E+00
    endloop
  endfacet
  facet normal  0.00000000E+00 -1.00000000E+00  0.00000000E+00
    outer loop
      vertex -5.22065163E-01  0.00000000E+00 -2.30375677E-01
      vertex  4.74129528E-01  0.00000000E+00 -3.17531407E-01
      vertex  6.89839959E-01  0.00000000E+00  2.14805055E+00
    endloop
  endfacet
endsolid  Processed by ADMesh version 0.95
