solid Created by Gmsh
facet normal -1 0 0
  outer loop
    vertex 0 0.03 1.7
    vertex 0 0.03 2
    vertex 0 0.315 1.8
  endloop
endfacet
facet normal -1 0 0
  outer loop
    vertex 0 0.6 2.25
    vertex 0 0.315 2.45
    vertex 0 0.6 2.6
  endloop
endfacet
facet normal -1 0 0
  outer loop
    vertex 0 0.03 2.3
    vertex 0 0.315 2.45
    vertex 0 0.03 2
  endloop
endfacet
facet normal -1 -0 0
  outer loop
    vertex 0 0.6 2.25
    vertex 0 0.03 2
    vertex 0 0.315 2.45
  endloop
endfacet
facet normal -1 0 0
  outer loop
    vertex 0 0.6 2.25
    vertex 0 0.315 1.8
    vertex 0 0.03 2
  endloop
endfacet
facet normal -1 -0 0
  outer loop
    vertex 0 0.6 1.9
    vertex 0 0.315 1.8
    vertex 0 0.6 2.25
  endloop
endfacet
endsolid Created by Gmsh
