solid  Processed by ADMesh version 0.95
  facet normal  0.00000000E+00  1.00000000E+00  0.00000000E+00
    outer loop
      vertex -1.27086729E-01  0.00000000E+00  1.45755756E+00
      vertex  1.42350480E-01  0.00000000E+00  5.31259239E-01
      vertex -3.40612441E-01  0.00000000E+00  6.60668731E-01
    endloop
  endfacet
  facet normal  0.00000000E+00  1.00000000E+00 -0.00000000E+00
    outer loop
      vertex  6.25313401E-01  0.00000000E+00  4.01849687E-01
      vertex  1.42350480E-01  0.00000000E+00  5.31259239E-01
      vertex  8.38839114E-01  0.00000000E+00  1.19873846E+00
    endloop
  endfacet
  facet normal  0.00000000E+00  1.00000000E+00  0.00000000E+00
    outer loop
      vertex -1.13880381E-01  0.00000000E+00 -4.25007373E-01
      vertex  1.98261961E-01  0.00000000E+00 -1.19192791E+00
      vertex -7.67663836E-01  0.00000000E+00 -9.33108926E-01
    endloop
  endfacet
  facet normal  0.00000000E+00  1.00000000E+00 -0.00000000E+00
    outer loop
      vertex  1.98261961E-01  0.00000000E+00 -1.19192791E+00
      vertex -1.13880381E-01  0.00000000E+00 -4.25007373E-01
      vertex  4.11787659E-01  0.00000000E+00 -3.95039141E-01
    endloop
  endfacet
  facet normal  0.00000000E+00  1.00000000E+00  0.00000000E+00
    outer loop
      vertex -5.54138124E-01  0.00000000E+00 -1.36220083E-01
      vertex -1.13880381E-01  0.00000000E+00 -4.25007373E-01
      vertex -7.67663836E-01  0.00000000E+00 -9.33108926E-01
    endloop
  endfacet
  facet normal  0.00000000E+00  1.00000000E+00 -0.00000000E+00
    outer loop
      vertex  8.38839114E-01  0.00000000E+00  1.19873846E+00
      vertex  3.98581326E-01  0.00000000E+00  1.48752570E+00
      vertex  1.05236483E+00  0.00000000E+00  1.99562728E+00
    endloop
  endfacet
  facet normal  0.00000000E+00  1.00000000E+00  0.00000000E+00
    outer loop
      vertex  8.64389986E-02  0.00000000E+00  2.25444627E+00
      vertex  3.98581326E-01  0.00000000E+00  1.48752570E+00
      vertex -1.27086729E-01  0.00000000E+00  1.45755756E+00
    endloop
  endfacet
  facet normal  0.00000000E+00  1.00000000E+00 -0.00000000E+00
    outer loop
      vertex  3.98581326E-01  0.00000000E+00  1.48752570E+00
      vertex  8.64389986E-02  0.00000000E+00  2.25444627E+00
      vertex  1.05236483E+00  0.00000000E+00  1.99562728E+00
    endloop
  endfacet
  facet normal  0.00000000E+00  1.00000000E+00  0.00000000E+00
    outer loop
      vertex  3.98581326E-01  0.00000000E+00  1.48752570E+00
      vertex  1.42350480E-01  0.00000000E+00  5.31259239E-01
      vertex -1.27086729E-01  0.00000000E+00  1.45755756E+00
    endloop
  endfacet
  facet normal  0.00000000E+00  1.00000000E+00  0.00000000E+00
    outer loop
      vertex  8.38839114E-01  0.00000000E+00  1.19873846E+00
      vertex  1.42350480E-01  0.00000000E+00  5.31259239E-01
      vertex  3.98581326E-01  0.00000000E+00  1.48752570E+00
    endloop
  endfacet
  facet normal  0.00000000E+00  1.00000000E+00  0.00000000E+00
    outer loop
      vertex -3.40612441E-01  0.00000000E+00  6.60668731E-01
      vertex  1.42350480E-01  0.00000000E+00  5.31259239E-01
      vertex -5.54138124E-01  0.00000000E+00 -1.36220083E-01
    endloop
  endfacet
  facet normal  0.00000000E+00  1.00000000E+00 -0.00000000E+00
    outer loop
      vertex  4.11787659E-01  0.00000000E+00 -3.95039141E-01
      vertex  1.42350480E-01  0.00000000E+00  5.31259239E-01
      vertex  6.25313401E-01  0.00000000E+00  4.01849687E-01
    endloop
  endfacet
  facet normal  0.00000000E+00  1.00000000E+00  0.00000000E+00
    outer loop
      vertex -1.13880381E-01  0.00000000E+00 -4.25007373E-01
      vertex  1.42350480E-01  0.00000000E+00  5.31259239E-01
      vertex  4.11787659E-01  0.00000000E+00 -3.95039141E-01
    endloop
  endfacet
  facet normal -0.00000000E+00  1.00000000E+00  0.00000000E+00
    outer loop
      vertex -5.54138124E-01  0.00000000E+00 -1.36220083E-01
      vertex  1.42350480E-01  0.00000000E+00  5.31259239E-01
      vertex -1.13880381E-01  0.00000000E+00 -4.25007373E-01
    endloop
  endfacet
  facet normal  0.00000000E+00 -1.00000000E+00  0.00000000E+00
    outer loop
      vertex -1.27086729E-01  0.00000000E+00  1.45755756E+00
      vertex -3.40612441E-01  0.00000000E+00  6.60668731E-01
      vertex -5.54138124E-01  0.00000000E+00 -1.36220083E-01
    endloop
  endfacet
  facet normal  0.00000000E+00 -1.00000000E+00  0.00000000E+00
    outer loop
      vertex  6.25313401E-01  0.00000000E+00  4.01849687E-01
      vertex  8.38839114E-01  0.00000000E+00  1.19873846E+00
      vertex  1.05236483E+00  0.00000000E+00  1.99562728E+00
    endloop
  endfacet
  facet normal  0.00000000E+00 -1.00000000E+00  0.00000000E+00
    outer loop
      vertex -7.67663836E-01  0.00000000E+00 -9.33108926E-01
      vertex  1.98261961E-01  0.00000000E+00 -1.19192791E+00
      vertex  4.11787659E-01  0.00000000E+00 -3.95039141E-01
    endloop
  endfacet
  facet normal  0.00000000E+00 -1.00000000E+00 -0.00000000E+00
    outer loop
      vertex -5.54138124E-01  0.00000000E+00 -1.36220083E-01
      vertex -7.67663836E-01  0.00000000E+00 -9.33108926E-01
      vertex  4.11787659E-01  0.00000000E+00 -3.95039141E-01
    endloop
  endfacet
  facet normal  0.00000000E+00 -1.00000000E+00  0.00000000E+00
    outer loop
      vertex  8.64389986E-02  0.00000000E+00  2.25444627E+00
      vertex -1.27086729E-01  0.00000000E+00  1.45755756E+00
      vertex -5.54138124E-01  0.00000000E+00 -1.36220083E-01
    endloop
  endfacet
  facet normal -0.00000000E+00 -1.00000000E+00  0.00000000E+00
    outer loop
      vertex  1.05236483E+00  0.00000000E+00  1.99562728E+00
      vertex  8.64389986E-02  0.00000000E+00  2.25444627E+00
      vertex -5.54138124E-01  0.00000000E+00 -1.36220083E-01
    endloop
  endfacet
  facet normal  0.00000000E+00  1.00000000E+00  0.00000000E+00
    outer loop
      vertex  4.11787659E-01  0.00000000E+00 -3.95039141E-01
      vertex  6.25313401E-01  0.00000000E+00  4.01849687E-01
      vertex  1.05236483E+00  0.00000000E+00  1.99562728E+00
    endloop
  endfacet
  facet normal  0.00000000E+00 -1.00000000E+00  0.00000000E+00
    outer loop
      vertex -5.54138124E-01  0.00000000E+00 -1.36220083E-01
      vertex  4.11787659E-01  0.00000000E+00 -3.95039141E-01
      vertex  1.05236483E+00  0.00000000E+00  1.99562728E+00
    endloop
  endfacet
endsolid  Processed by ADMesh version 0.95
